<svg xmlns="http://www.w3.org/2000/svg" width="148.331" height="147.645" viewBox="0 0 148.331 147.645"><defs><style>.a{fill:#fff;}</style></defs><g transform="translate(-40.682 -41.678)"><g transform="translate(40.682 41.678)"><g transform="translate(69.78)"><path class="a" d="M320.469,189.323h-7.536a1.351,1.351,0,1,1,0-2.7h6.185V77.316a1.351,1.351,0,1,1,2.7,0V187.972A1.351,1.351,0,0,1,320.469,189.323Zm-24.42,0H244.62a1.351,1.351,0,0,1-1.351-1.351v-9.058a1.351,1.351,0,0,1,1.351-1.351h28.99V151.549a1.351,1.351,0,1,1,2.7,0v27.365a1.351,1.351,0,0,1-1.351,1.351H245.97v6.356h50.078a1.351,1.351,0,0,1,0,2.7Zm-21.089-53.308a1.351,1.351,0,0,1-1.316-1.045H244.62a1.351,1.351,0,0,1-1.351-1.351V121.5a1.351,1.351,0,0,1,1.351-1.351h16.6l11.545-4.24-11.527-3.889H244.62a1.351,1.351,0,0,1-1.351-1.351v-8.413a1.351,1.351,0,1,1,2.7,0v7.063h15.488a1.344,1.344,0,0,1,.432.071l15.37,5.185a1.351,1.351,0,0,1,.034,2.548l-15.37,5.644a1.353,1.353,0,0,1-.466.083H245.97v9.419h28.989a1.351,1.351,0,0,1,1.351,1.351v1.045A1.351,1.351,0,0,1,274.959,136.015ZM244.62,86.722a1.351,1.351,0,0,1-1.351-1.351V43.029a1.351,1.351,0,0,1,1.351-1.351h75.85a1.351,1.351,0,0,1,1.351,1.351v17.4a1.351,1.351,0,0,1-2.7,0V44.379H245.97V85.371A1.351,1.351,0,0,1,244.62,86.722Z" transform="translate(-243.269 -41.678)"/></g><g transform="translate(9.1 90.59)"><path class="a" d="M159.472,352.677H68.453a1.351,1.351,0,0,1-1.351-1.351V348.85a1.351,1.351,0,1,1,2.7,0v1.126h88.318V324.154a1.351,1.351,0,1,1,2.7,0v27.173A1.351,1.351,0,0,1,159.472,352.677ZM68.453,333.315a1.351,1.351,0,0,1-1.351-1.351V306.031a1.351,1.351,0,0,1,1.351-1.351h91.019a1.351,1.351,0,0,1,1.351,1.351v1.239a1.351,1.351,0,0,1-2.7.112H69.8v24.583A1.351,1.351,0,0,1,68.453,333.315Z" transform="translate(-67.102 -304.68)"/></g><g transform="translate(9.1 90.59)"><path class="a" d="M113.961,330.03a1.349,1.349,0,0,1-.6-.142L67.851,307.241a1.351,1.351,0,0,1,.6-2.56h91.019a1.351,1.351,0,0,1,.6,2.56l-24.327,12.106a1.351,1.351,0,0,1-1.2-2.419l19.182-9.546H74.2l39.762,19.788,5.467-2.72a1.351,1.351,0,1,1,1.2,2.419l-6.069,3.02A1.35,1.35,0,0,1,113.961,330.03Z" transform="translate(-67.102 -304.681)"/></g><g transform="translate(69.78)"><path class="a" d="M320.469,59.478H288.744a1.351,1.351,0,1,1,0-2.7h30.374v-12.4H245.97v12.4h25.889a1.351,1.351,0,1,1,0,2.7H244.62a1.351,1.351,0,0,1-1.351-1.351v-15.1a1.351,1.351,0,0,1,1.351-1.351h75.85a1.351,1.351,0,0,1,1.351,1.351v15.1A1.351,1.351,0,0,1,320.469,59.478Z" transform="translate(-243.269 -41.678)"/></g><rect class="a" width="5.562" height="5.539" transform="translate(82.254 24.684)"/><rect class="a" width="5.563" height="5.539" transform="translate(98.278 24.684)"/><rect class="a" width="5.562" height="5.539" transform="translate(114.302 24.684)"/><rect class="a" width="5.562" height="5.539" transform="translate(130.326 24.684)"/><g transform="translate(9.1 15.098)"><path class="a" d="M129.132,118.409H101.825a1.351,1.351,0,0,1,0-2.7h25.957v-27.5H69.8v27.495H84.94a1.351,1.351,0,0,1,0,2.7H68.453a1.351,1.351,0,0,1-1.351-1.351v-30.2a1.351,1.351,0,0,1,1.351-1.351h60.68a1.351,1.351,0,0,1,1.351,1.351v30.2A1.351,1.351,0,0,1,129.132,118.409Z" transform="translate(-67.102 -85.511)"/></g><g transform="translate(34.49 67.64)"><path class="a" d="M194.294,251.584H142.166a1.351,1.351,0,0,1-1.351-1.351V239.4a1.351,1.351,0,0,1,2.7,0v9.48h49.428v-8.129H149.891a1.351,1.351,0,1,1,0-2.7h44.4a1.351,1.351,0,0,1,1.351,1.351v10.83A1.351,1.351,0,0,1,194.294,251.584Z" transform="translate(-140.815 -238.053)"/></g><g transform="translate(86.619 67.64)"><path class="a" d="M293.507,251.584a1.35,1.35,0,0,1-1.351-1.351V239.4a1.351,1.351,0,0,1,1.783-1.28l15.37,5.185a1.351,1.351,0,0,1,.034,2.548l-15.37,5.644A1.362,1.362,0,0,1,293.507,251.584Zm1.351-10.3V248.3l9.954-3.655Z" transform="translate(-292.156 -238.053)"/></g><g transform="translate(19.046 67.64)"><path class="a" d="M112.772,251.584h-10a6.766,6.766,0,1,1,0-13.531h10a1.351,1.351,0,0,1,1.351,1.351v10.83A1.351,1.351,0,0,1,112.772,251.584Zm-10.005-10.83a4.064,4.064,0,1,0,0,8.129h8.654v-8.129Z" transform="translate(-95.978 -238.053)"/></g><g transform="translate(0 45.295)"><path class="a" d="M51.133,232.5h-9.1a1.351,1.351,0,0,1-1.351-1.351V174.53a1.351,1.351,0,0,1,1.351-1.351H64.864a1.351,1.351,0,0,1,0,2.7H43.383V229.8h6.4v-9.973a1.351,1.351,0,0,1,1.351-1.351h59.329v-9.419H86.845a1.351,1.351,0,0,1,0-2.7h24.968a1.351,1.351,0,0,1,1.351,1.351v12.12a1.351,1.351,0,0,1-1.351,1.351H52.484v9.973A1.351,1.351,0,0,1,51.133,232.5ZM69.96,209.056H66.518a6.766,6.766,0,1,1,0-13.531h43.944V175.881H81.748a1.351,1.351,0,0,1,0-2.7h30.064a1.351,1.351,0,0,1,1.351,1.351v22.345a1.351,1.351,0,0,1-1.351,1.351H66.518a4.064,4.064,0,1,0,0,8.129H69.96a1.35,1.35,0,1,1,0,2.7Z" transform="translate(-40.682 -173.179)"/></g><rect class="a" width="5.56" height="5.539" transform="translate(9.424 55.048)"/><rect class="a" width="5.563" height="5.539" transform="translate(25.446 55.048)"/><rect class="a" width="5.563" height="5.539" transform="translate(41.47 55.048)"/><rect class="a" width="5.563" height="5.539" transform="translate(57.494 55.048)"/></g></g></svg>