<svg xmlns="http://www.w3.org/2000/svg" width="156.725" height="155.3" viewBox="0 0 156.725 155.3"><defs><style>.a{fill:#fff;}</style></defs><g transform="translate(-14.807 -17)"><g transform="translate(14.807 17)"><g transform="translate(0 122.539)"><path class="a" d="M82.511,426.925h-66.4a1.3,1.3,0,0,1-1.3-1.3V410.482A12.987,12.987,0,0,1,24,398.016l12.264-3.794a1.3,1.3,0,0,1,1.087.148l12,7.71,13.545-7.745a1.3,1.3,0,0,1,1.058-.1L74.906,397.9a13.036,13.036,0,0,1,8.9,12.374v15.352A1.3,1.3,0,0,1,82.511,426.925Zm-65.1-2.6h63.8V410.273a10.439,10.439,0,0,0-7.131-9.909l-10.4-3.484-13.724,7.847a1.3,1.3,0,0,1-1.348-.035l-12.152-7.809L24.768,400.5a10.4,10.4,0,0,0-7.361,9.983v13.844Z" transform="translate(-14.807 -394.163)"/></g><g transform="translate(14.421 139.705)"><path class="a" d="M60.493,462.595a1.3,1.3,0,0,1-1.3-1.3V448.444a1.3,1.3,0,1,1,2.6,0V460H98.223L98.18,448.3a1.3,1.3,0,0,1,1.295-1.3h0a1.3,1.3,0,0,1,1.3,1.295l.048,13a1.3,1.3,0,0,1-1.3,1.3Z" transform="translate(-59.193 -447)"/></g><g transform="translate(16.245 81.224)"><path class="a" d="M82.351,302.089A17.544,17.544,0,1,1,99.9,284.544,17.564,17.564,0,0,1,82.351,302.089Zm0-32.49A14.945,14.945,0,1,0,97.3,284.544,14.962,14.962,0,0,0,82.351,269.6Z" transform="translate(-64.807 -267)"/></g><g transform="translate(87.722 122.539)"><path class="a" d="M352.511,426.925h-66.4a1.3,1.3,0,0,1-1.3-1.3V410.482A12.987,12.987,0,0,1,294,398.016l12.264-3.794a1.3,1.3,0,0,1,1.087.148l12,7.709,13.545-7.745a1.3,1.3,0,0,1,1.058-.1l10.955,3.669a13.036,13.036,0,0,1,8.9,12.374v15.352A1.3,1.3,0,0,1,352.511,426.925Zm-65.1-2.6h63.805V410.273a10.439,10.439,0,0,0-7.131-9.909l-10.4-3.484-13.724,7.847a1.3,1.3,0,0,1-1.347-.035l-12.152-7.809L294.768,400.5a10.4,10.4,0,0,0-7.362,9.983v13.844Z" transform="translate(-284.807 -394.163)"/></g><g transform="translate(102.143 139.705)"><path class="a" d="M330.493,462.595a1.3,1.3,0,0,1-1.3-1.3V448.444a1.3,1.3,0,1,1,2.6,0V460h36.431L368.18,448.3a1.3,1.3,0,0,1,1.295-1.3h0a1.3,1.3,0,0,1,1.3,1.295l.048,13a1.3,1.3,0,0,1-1.3,1.3Z" transform="translate(-329.193 -447)"/></g><g transform="translate(107.216 81.224)"><path class="a" d="M362.351,302.089A17.544,17.544,0,1,1,379.9,284.544,17.565,17.565,0,0,1,362.351,302.089Zm0-32.49A14.945,14.945,0,1,0,377.3,284.544,14.962,14.962,0,0,0,362.351,269.6Z" transform="translate(-344.807 -267)"/></g><g transform="translate(70.033 93.137)"><path class="a" d="M239.6,322.151a9.241,9.241,0,1,1,9.242-9.241A9.252,9.252,0,0,1,239.6,322.151Zm0-15.884a6.642,6.642,0,1,0,6.642,6.642A6.65,6.65,0,0,0,239.6,306.267Z" transform="translate(-230.363 -303.668)"/></g><g transform="translate(45.485 41.315)"><path class="a" d="M221.086,176.925H156.107a1.3,1.3,0,0,1-1.3-1.3v-15.2a13,13,0,0,1,9.116-12.442l11.893-3.76a1.3,1.3,0,0,1,1.1.153l11.716,7.694,13.229-7.729a1.3,1.3,0,0,1,1.076-.108l10.621,3.635a13.05,13.05,0,0,1,8.823,12.346v15.41A1.3,1.3,0,0,1,221.086,176.925Zm-63.68-2.6h62.38V160.215a10.45,10.45,0,0,0-7.066-9.887l-10.058-3.443-13.41,7.835a1.3,1.3,0,0,1-1.369-.036l-11.873-7.8-11.3,3.574a10.411,10.411,0,0,0-7.3,9.964v13.9Z" transform="translate(-154.807 -144.164)"/></g><g transform="translate(58.481 58.481)"><path class="a" d="M196.107,212.6a1.3,1.3,0,0,1-1.3-1.3V198.444a1.3,1.3,0,0,1,2.6,0V210h36.431l-.043-11.691a1.3,1.3,0,0,1,1.295-1.3h0a1.3,1.3,0,0,1,1.3,1.295l.048,13a1.3,1.3,0,0,1-1.3,1.3Z" transform="translate(-194.807 -197)"/></g><g transform="translate(61.73)"><path class="a" d="M222.351,52.089A17.544,17.544,0,1,1,239.9,34.544,17.564,17.564,0,0,1,222.351,52.089Zm0-32.49A14.945,14.945,0,1,0,237.3,34.544,14.962,14.962,0,0,0,222.351,19.6Z" transform="translate(-204.807 -17)"/></g><g transform="translate(64.979 152.701)"><path class="a" d="M238.849,489.6H216.107a1.3,1.3,0,0,1,0-2.6h22.743a1.3,1.3,0,1,1,0,2.6Z" transform="translate(-214.807 -487)"/></g><g transform="translate(77.975 81.224)"><path class="a" d="M256.107,281.512a1.3,1.3,0,0,1-1.3-1.3V268.3a1.3,1.3,0,1,1,2.6,0v11.913A1.3,1.3,0,0,1,256.107,281.512Z" transform="translate(-254.807 -267)"/></g><g transform="translate(62.091 109.021)"><path class="a" d="M207.217,363.1a1.3,1.3,0,0,1-.919-2.218l7.942-7.942a1.3,1.3,0,1,1,1.838,1.838l-7.942,7.942A1.3,1.3,0,0,1,207.217,363.1Z" transform="translate(-205.918 -352.556)"/></g><g transform="translate(85.917 109.021)"><path class="a" d="M288.493,363.1a1.3,1.3,0,0,1-.919-.381l-7.942-7.942a1.3,1.3,0,1,1,1.838-1.838l7.942,7.942a1.3,1.3,0,0,1-.919,2.218Z" transform="translate(-279.252 -352.556)"/></g><g transform="translate(110.464 9.747)"><path class="a" d="M398.343,49.6H356.107a1.3,1.3,0,1,1,0-2.6h42.236a1.3,1.3,0,0,1,0,2.6Z" transform="translate(-354.807 -47)"/></g><g transform="translate(123.46 19.494)"><path class="a" d="M425.347,79.6H396.107a1.3,1.3,0,0,1,0-2.6h29.241a1.3,1.3,0,0,1,0,2.6Z" transform="translate(-394.807 -77)"/></g><g transform="translate(3.249 9.747)"><path class="a" d="M68.343,49.6H26.107a1.3,1.3,0,0,1,0-2.6H68.343a1.3,1.3,0,1,1,0,2.6Z" transform="translate(-24.807 -47)"/></g><g transform="translate(3.249 19.494)"><path class="a" d="M55.347,79.6H26.107a1.3,1.3,0,1,1,0-2.6H55.347a1.3,1.3,0,0,1,0,2.6Z" transform="translate(-24.807 -77)"/></g></g></g></svg>