<svg xmlns="http://www.w3.org/2000/svg" width="154.607" height="133.4" viewBox="0 0 154.607 133.4"><defs><style>.a{fill:#fff;}</style></defs><g transform="translate(0 -7.866)"><path class="a" d="M152.889,112.429H142.778V39.391a10.351,10.351,0,0,0-10.34-10.34H114.809a1.718,1.718,0,1,0,0,3.436h17.63a6.912,6.912,0,0,1,6.9,6.9v73.038H15.265V39.391a6.912,6.912,0,0,1,6.9-6.9H39.545a1.718,1.718,0,1,0,0-3.436H22.167a10.351,10.351,0,0,0-10.34,10.34v73.038H1.718A1.717,1.717,0,0,0,0,114.147v1.562a10.363,10.363,0,0,0,10.352,10.35h133.9a10.363,10.363,0,0,0,10.352-10.35v-1.562A1.716,1.716,0,0,0,152.889,112.429ZM10.352,122.623a6.924,6.924,0,0,1-6.914-6.76H67.278v6.76Zm60.362,0v-6.76H83.893v6.76Zm73.541,0H87.329v-6.76h63.841A6.924,6.924,0,0,1,144.255,122.623Z" transform="translate(0 15.208)"/><g transform="translate(40.371 7.866)"><path class="a" d="M47.791,39.62a8.908,8.908,0,0,1-6.171-2.9,1.718,1.718,0,1,1,2.4-2.462c2.644,2.577,4.908,2.573,7.569,0a1.718,1.718,0,1,1,2.39,2.469A8.968,8.968,0,0,1,47.791,39.62Z" transform="translate(-10.867 10.729)"/><path class="a" d="M40.63,29.629a5.4,5.4,0,0,1,5.379,0A1.718,1.718,0,0,0,47.6,26.581a8.8,8.8,0,0,0-8.557,0,1.718,1.718,0,0,0,1.589,3.047Z" transform="translate(-13.009 4.771)"/><path class="a" d="M48.34,29.629a5.39,5.39,0,0,1,5.377,0,1.719,1.719,0,0,0,1.591-3.047,8.791,8.791,0,0,0-8.557,0,1.718,1.718,0,0,0,1.589,3.047Z" transform="translate(-7.474 4.771)"/><path class="a" d="M87.288,71.77l-9.507-1.6a5.619,5.619,0,0,1-4.92-5.367l-.038-1.713c.1-.094.21-.175.307-.273.342-.338.66-.7.983-1.065a10.119,10.119,0,0,0,7.991-8.191h1.537a4.025,4.025,0,0,0,4.02-4.02v-9.7a4.025,4.025,0,0,0-4.02-4.02H81.592a1.688,1.688,0,0,0,.191-.555C83.09,25.936,81.7,18.848,77.66,14.2,74,10,68.3,7.866,60.691,7.866h0c-7.614,0-14.186,2.663-18.032,7.3S37.613,26.144,39.1,33.991a1.715,1.715,0,0,0,.545.96l.064.866H37.225a4.025,4.025,0,0,0-4.02,4.02v9.7a4.025,4.025,0,0,0,4.02,4.02h4.669a24.533,24.533,0,0,0,6.153,9.529l-.041,1.75a5.612,5.612,0,0,1-4.92,5.327l-9.507,1.6c-5.841.984-10.079,5.715-10.079,11.25v20.437a4.769,4.769,0,0,0,4.884,4.635H48.226l10.993,10.994a1.717,1.717,0,0,0,2.429,0L72.64,108.089H92.483a4.77,4.77,0,0,0,4.884-4.635V83.02C97.367,77.487,93.127,72.756,87.288,71.77ZM84.225,39.84v9.7a.584.584,0,0,1-.584.584H79.91a25.04,25.04,0,0,0,.39-2.673l.569-8.2h2.773A.586.586,0,0,1,84.225,39.84Zm-7.67-21.265c1.847,3.269,2.57,7.675,2.156,13.155C75.49,28.917,73.515,25.62,76.555,18.575ZM45.3,17.366c3.192-3.853,8.8-6.061,15.389-6.061h0c5.951,0,10.481,1.424,13.49,4.235q-.363.732-.67,1.429C67.695,27.7,56.731,33,42.25,32.067,41.315,25.878,42.339,20.937,45.3,17.366ZM37.225,50.127a.584.584,0,0,1-.584-.584v-9.7a.584.584,0,0,1,.584-.584h2.733l.612,8.223a24.587,24.587,0,0,0,.385,2.649H37.225ZM44,47.208l-.868-11.654c12,.546,21.765-2.948,28.475-10.072.259,4.3,2.826,7.181,6.093,9.848l-.823,11.86a20.981,20.981,0,0,1-3.7,10.264c-.247.356-.522.692-.792,1.032-.076,0-.146.022-.222.022H65.089a1.718,1.718,0,0,0,0,3.436h3.839a20.842,20.842,0,0,1-5.851,3.25,7.822,7.822,0,0,1-5.293,0A21.055,21.055,0,0,1,44,47.208Zm7.363,18.541a24.238,24.238,0,0,0,5.262,2.68,11.243,11.243,0,0,0,7.627,0,24.312,24.312,0,0,0,5.264-2.685,8.677,8.677,0,0,0,3.474,6c-8.412,7.363-16.658,7.363-25.1,0A8.637,8.637,0,0,0,51.358,65.749Zm-24.423,37.71V94.173h6.942A4.286,4.286,0,0,1,36.9,95.382a3.368,3.368,0,0,1,1.017,2.383c-.005,3.592-.005,5.674,0,6.9H28.385A1.347,1.347,0,0,1,26.935,103.459Zm45.29,1.2a1.709,1.709,0,0,0-1.488.481l-10.3,10.305-10.3-10.305a1.714,1.714,0,0,0-1.421-.481H41.351c0-1.227,0-3.321,0-6.892a6.786,6.786,0,0,0-2.02-4.813,7.749,7.749,0,0,0-5.456-2.218H26.935V83.02c0-3.851,3.034-7.157,7.213-7.861l9.507-1.6c.309-.052.6-.149.895-.228,5.212,4.886,10.555,7.359,15.9,7.359s10.675-2.472,15.873-7.358c.3.079.584.177.892.228l9.507,1.6c4.181.7,7.213,4.009,7.213,7.861v7.715H86.916a7.752,7.752,0,0,0-5.456,2.218,6.775,6.775,0,0,0-2.022,4.813c0,3.192.005,5.482,0,6.892H72.225Zm20.259,0h-9.6c0-1.247,0-3.345,0-6.9a3.361,3.361,0,0,1,1.017-2.383,4.29,4.29,0,0,1,3.025-1.209h7.012v9.287A1.344,1.344,0,0,1,92.483,104.659Z" transform="translate(-23.501 -7.866)"/></g></g></svg>