<svg xmlns="http://www.w3.org/2000/svg" width="139.566" height="143.533" viewBox="0 0 139.566 143.533"><defs><style>.a{fill:#fff;}</style></defs><g transform="translate(-6.75 -5.5)"><path class="a" d="M50.343,131.338H66.664a1.613,1.613,0,0,0,1.613-1.613V93.438h14.1l30.852,23.272a1.613,1.613,0,0,0,2.58-1.29V87.084h11.289a1.613,1.613,0,0,0,1.613-1.613V64.877a1.613,1.613,0,0,0-1.613-1.613H115.8V35.993a1.613,1.613,0,0,0-2.58-1.29L82.356,57.958H37.1a1.613,1.613,0,0,0-1.613,1.613V91.826A1.613,1.613,0,0,0,37.1,93.438H48.731v36.287A1.613,1.613,0,0,0,50.343,131.338ZM125.416,66.49V83.859H115.74V66.49ZM65.051,128.112h-13.1V93.438h13.1ZM84.517,60.377l28.062-21.111v72.928L84.517,91.084Zm-45.8.806H81.292V90.213H38.715Z" transform="translate(17.61 17.696)"/><path class="a" d="M8.363,94.2H40.214V90.975H9.975V8.725H113.19V39.771h3.225V7.113A1.613,1.613,0,0,0,114.8,5.5H8.363A1.613,1.613,0,0,0,6.75,7.113V92.588A1.613,1.613,0,0,0,8.363,94.2Z" transform="translate(0)"/><path class="a" d="M46.613,14.75A1.613,1.613,0,0,0,45,16.363V50.02a1.613,1.613,0,0,0,1.613,1.613H79.738a1.613,1.613,0,0,0,1.613-1.613V16.363a1.613,1.613,0,0,0-1.613-1.613ZM78.126,48.408h-29.9V17.975h29.9Z" transform="translate(23.437 5.668)"/><rect class="a" width="36.432" height="3.225" transform="translate(18.378 20.418)"/><rect class="a" width="36.432" height="3.225" transform="translate(18.378 36.545)"/><rect class="a" width="36.432" height="3.225" transform="translate(18.378 52.672)"/></g></svg>