<svg xmlns="http://www.w3.org/2000/svg" width="133.455" height="142.001" viewBox="0 0 133.455 142.001"><defs><style>.a{fill:#fff;}</style></defs><g transform="translate(-12.102 -32)"><g transform="translate(12.102 32)"><g transform="translate(0 0)"><g transform="translate(40.807 110.47)"><path class="a" d="M194.377,427.613H147.8a1.214,1.214,0,0,1-1.162-1.562l8.731-29.1a1.213,1.213,0,0,1,1.162-.865h29.1a1.213,1.213,0,0,1,1.162.865l8.7,28.988a1.214,1.214,0,0,1-1.122,1.677Zm-44.94-2.427h43.3l-8-26.676h-27.3Z" transform="translate(-146.591 -396.082)"/></g><circle class="a" cx="3.181" cy="3.181" r="3.181" transform="translate(61.987 97.131)"/><g transform="translate(26.255 139.573)"><path class="a" d="M175.516,494.427H99.847a1.214,1.214,0,0,1,0-2.427h75.669a1.214,1.214,0,0,1,0,2.427Z" transform="translate(-98.633 -492)"/></g><g transform="translate(0.062 90.097)"><path class="a" d="M33.892,331.365H13.52a1.214,1.214,0,0,1,0-2.427H33.892a1.214,1.214,0,0,1,0,2.427Z" transform="translate(-12.306 -328.938)"/></g><g transform="translate(33.376 90.097)"><path class="a" d="M220.967,331.365H123.316a1.214,1.214,0,1,1,0-2.427h97.651a1.214,1.214,0,1,1,0,2.427Z" transform="translate(-122.102 -328.938)"/></g><g transform="translate(100.038 24.274)"><path class="a" d="M361.313,178.146a1.214,1.214,0,0,1-1.214-1.214v-62.5H343.018a1.214,1.214,0,0,1,0-2.427h18.3a1.214,1.214,0,0,1,1.214,1.214v63.718A1.214,1.214,0,0,1,361.313,178.146Z" transform="translate(-341.804 -112)"/></g><g transform="translate(12.137 24.274)"><path class="a" d="M53.316,178.146a1.214,1.214,0,0,1-1.214-1.214V113.214A1.214,1.214,0,0,1,53.316,112H71.521a1.214,1.214,0,0,1,0,2.427H54.529v62.5A1.214,1.214,0,0,1,53.316,178.146Z" transform="translate(-52.102 -112)"/></g><g transform="translate(0 130.471)"><path class="a" d="M40.623,464.427H13.316a1.214,1.214,0,0,1,0-2.427H40.623a1.214,1.214,0,0,1,0,2.427Z" transform="translate(-12.102 -462)"/></g><g transform="translate(0 121.368)"><path class="a" d="M25.452,434.427H13.316a1.214,1.214,0,0,1,0-2.427H25.452a1.214,1.214,0,0,1,0,2.427Z" transform="translate(-12.102 -432)"/></g><g transform="translate(103.163 130.471)"><path class="a" d="M380.623,464.427H353.316a1.214,1.214,0,1,1,0-2.427h27.308a1.214,1.214,0,1,1,0,2.427Z" transform="translate(-352.102 -462)"/></g><g transform="translate(121.368 121.368)"><path class="a" d="M422.418,434.427h-9.1a1.214,1.214,0,1,1,0-2.427h9.1a1.214,1.214,0,0,1,0,2.427Z" transform="translate(-412.102 -432)"/></g><g transform="translate(0.062 11.518)"><path class="a" d="M137.3,171.339H20.7a8.4,8.4,0,0,1-8.395-8.395V78.354A8.4,8.4,0,0,1,20.7,69.959H43.8a1.214,1.214,0,0,1,1.214,1.214v66.158h67.272c.056-18.791.157-63.708.013-65.959a1.213,1.213,0,0,1,1.2-1.413H137.3a8.4,8.4,0,0,1,8.394,8.395v84.59A8.4,8.4,0,0,1,137.3,171.339ZM20.7,72.386a5.974,5.974,0,0,0-5.967,5.967v84.59a5.974,5.974,0,0,0,5.967,5.967H137.3a5.974,5.974,0,0,0,5.967-5.967V78.354a5.974,5.974,0,0,0-5.967-5.967H114.751c.007.45.011,1.016.017,1.731.013,1.762.022,4.341.028,7.667.008,5.6.005,13.388-.01,23.153-.025,16.626-.076,33.443-.076,33.611a1.214,1.214,0,0,1-1.214,1.21H43.8a1.214,1.214,0,0,1-1.214-1.214V72.386Z" transform="translate(-12.305 -69.959)"/></g><g transform="translate(30.342)"><path class="a" d="M183.012,113.317h-69.7A1.214,1.214,0,0,1,112.1,112.1V33.214A1.214,1.214,0,0,1,113.316,32h69.7a1.214,1.214,0,0,1,1.214,1.214V112.1A1.214,1.214,0,0,1,183.012,113.317Zm-68.482-2.427H181.8V34.427H114.529Z" transform="translate(-112.102 -32)"/></g><rect class="a" width="6.068" height="6.068" transform="translate(43.692 49.761)"/><rect class="a" width="6.068" height="6.068" transform="translate(52.795 49.761)"/><rect class="a" width="6.068" height="6.068" transform="translate(61.898 49.761)"/><g transform="translate(42.479 60.684)"><path class="a" d="M198.829,243.53H153.316a1.214,1.214,0,0,1-1.214-1.214v-9.1A1.214,1.214,0,0,1,153.316,232h45.513a1.214,1.214,0,0,1,1.214,1.214v9.1A1.214,1.214,0,0,1,198.829,243.53Zm-44.3-2.427h43.086v-6.675H154.529V241.1Z" transform="translate(-152.102 -232)"/></g><g transform="translate(69.787 12.137)"><path class="a" d="M249.384,86.564a7.282,7.282,0,1,1,7.282-7.282A7.29,7.29,0,0,1,249.384,86.564Zm0-12.137a4.855,4.855,0,1,0,4.855,4.855A4.86,4.86,0,0,0,249.384,74.427Z" transform="translate(-242.102 -72)"/></g><g transform="translate(63.718 24.274)"><path class="a" d="M247.589,126.564a1.214,1.214,0,0,1-1.214-1.214,10.923,10.923,0,0,0-21.846,0,1.214,1.214,0,1,1-2.427,0,13.35,13.35,0,0,1,26.7,0A1.214,1.214,0,0,1,247.589,126.564Z" transform="translate(-222.102 -112)"/></g><g transform="translate(42.479)"><path class="a" d="M165.453,52.633a1.214,1.214,0,0,1-.859-.355l-5.21-5.21-5.21,5.21a1.214,1.214,0,0,1-2.072-.858V33.214A1.214,1.214,0,0,1,153.317,32h12.137a1.214,1.214,0,0,1,1.214,1.214V51.419a1.214,1.214,0,0,1-1.214,1.214Zm-6.069-8.5a1.212,1.212,0,0,1,.858.355l4,4V34.427H154.53V48.489l4-4A1.212,1.212,0,0,1,159.385,44.137Z" transform="translate(-152.103 -32)"/></g></g></g></g></svg>